<?xml version="1.0" encoding="UTF-8"?>
<svg version="1.1" xmlns="http://www.w3.org/2000/svg" width="512" height="512">
<path d="M0 0 C4.91893774 4.33353093 9.77369371 8.71274158 14.52734375 13.2265625 C15.06149902 13.73203613 15.5956543 14.23750977 16.14599609 14.75830078 C24.44404761 22.66672611 31.70349525 31.02385171 38.52734375 40.2265625 C38.95112305 40.78956055 39.37490234 41.35255859 39.81152344 41.93261719 C76.81711047 91.2259933 92.48749745 154.77368736 84.00610352 215.76342773 C78.56194032 250.30704771 66.55495652 284.38145191 46.52734375 313.2265625 C46.00946289 313.97599121 45.49158203 314.72541992 44.95800781 315.49755859 C37.44635359 326.26075492 29.387848 336.18563932 20.18261719 345.54052734 C18.59609359 347.15653501 17.0325888 348.79196011 15.47265625 350.43359375 C8.38885835 357.80612071 0.72297498 364.13017107 -7.47265625 370.2265625 C-8.03710449 370.65179199 -8.60155273 371.07702148 -9.18310547 371.51513672 C-39.87526731 394.55418807 -75.70609899 408.8925487 -113.47265625 415.2265625 C-114.68179687 415.4328125 -115.8909375 415.6390625 -117.13671875 415.8515625 C-172.89806503 424.15629587 -234.1994738 410.35475895 -280.47265625 378.2265625 C-281.22208496 377.70868164 -281.97151367 377.19080078 -282.74365234 376.65722656 C-293.50684867 369.14557234 -303.43173307 361.08706675 -312.78662109 351.88183594 C-314.40262876 350.29531234 -316.03805386 348.73180755 -317.6796875 347.171875 C-325.05221446 340.0880771 -331.37626482 332.42219373 -337.47265625 324.2265625 C-338.11050049 323.37989014 -338.11050049 323.37989014 -338.76123047 322.51611328 C-361.79101358 291.83629842 -376.22798083 255.99642903 -382.47265625 218.2265625 C-382.6010791 217.50339844 -382.72950195 216.78023438 -382.86181641 216.03515625 C-392.78669953 158.40142936 -376.22967621 95.71642163 -343.35546875 48.1640625 C-341.43952554 45.48025099 -339.47777908 42.84424831 -337.47265625 40.2265625 C-336.85003906 39.41058594 -336.22742188 38.59460938 -335.5859375 37.75390625 C-330.24100949 30.91283206 -324.44741951 24.51537886 -318.47265625 18.2265625 C-317.96573242 17.69095703 -317.45880859 17.15535156 -316.93652344 16.60351562 C-309.02963777 8.30695811 -300.67364137 1.04913141 -291.47265625 -5.7734375 C-290.9096582 -6.1972168 -290.34666016 -6.62099609 -289.76660156 -7.05761719 C-256.89951489 -31.73163898 -218.15062443 -46.59575294 -177.47265625 -51.7734375 C-176.75513184 -51.86915039 -176.03760742 -51.96486328 -175.29833984 -52.06347656 C-113.59269428 -59.34137769 -47.48595921 -40.24233832 0 0 Z " fill="#3279EB" transform="translate(405.47265625,73.7734375)"/>
<path d="M0 0 C0.97324219 -0.02578125 1.94648438 -0.0515625 2.94921875 -0.078125 C11.27540487 0.73418584 18.30066285 4.59934673 25.5 8.625 C26.93230957 9.41620239 26.93230957 9.41620239 28.39355469 10.22338867 C36.8760232 14.93965785 45.22618047 19.87134158 53.5625 24.83984375 C59.6971273 28.49075195 65.87582344 32.0631839 72.0625 35.625 C73.15014648 36.25124268 74.23779297 36.87748535 75.35839844 37.52270508 C77.57144125 38.79636242 79.78465807 40.06971746 81.99804688 41.34277344 C87.43900565 44.47364924 92.87555248 47.61216542 98.3125 50.75 C100.47914498 52.00003758 102.64581166 53.25003756 104.8125 54.5 C109.14583333 57 113.47916667 59.5 117.8125 62 C118.88636963 62.61931396 119.96023926 63.23862793 121.06665039 63.87670898 C123.22027524 65.11963967 125.37311576 66.36393041 127.52514648 67.60961914 C132.54358643 70.51234901 137.56811149 73.40192422 142.62271118 76.24118042 C144.3982238 77.23938525 146.17113775 78.24205944 147.94335938 79.24609375 C150.15709604 80.49848661 152.37553887 81.74261424 154.59960938 82.9765625 C164.57282388 88.64099192 172.5420262 94.60663198 177.3125 105.25 C177.745625 106.178125 178.17875 107.10625 178.625 108.0625 C180.8593894 118.42194178 179.23144889 128.36285313 173.9921875 137.5703125 C168.07652417 146.07205815 158.9636319 150.78228873 150.11663818 155.73904419 C146.9907288 157.49065961 143.87529685 159.26079255 140.7578125 161.02734375 C139.81121262 161.56263954 139.81121262 161.56263954 138.8454895 162.10874939 C132.92865172 165.45744262 127.0535335 168.87564008 121.1875 172.3125 C109.6842811 179.0429441 98.14325952 185.70656131 86.59472656 192.35888672 C82.247349 194.86370572 77.90143611 197.3710589 73.55566406 199.87866211 C71.39887121 201.12315302 69.24197069 202.36745734 67.08496094 203.61157227 C61.54205566 206.80866177 56.00045719 210.00798501 50.4609375 213.2109375 C45.03330799 216.34862797 39.60234787 219.48045963 34.16796875 222.60644531 C32.36229855 223.64575549 30.55749639 224.68657651 28.75390625 225.72949219 C26.56842691 226.99223379 24.3788239 228.24743693 22.1875 229.5 C21.59114746 229.84659668 20.99479492 230.19319336 20.38037109 230.55029297 C10.90481283 235.92875369 1.90799926 238.3214998 -8.91015625 235.37109375 C-19.00788019 231.50306549 -26.8773453 225.06945593 -31.6875 215.25 C-33.24461447 209.85143895 -33.94273287 205.15315053 -33.96838379 199.49725342 C-33.97432603 198.75976183 -33.98026828 198.02227025 -33.98639059 197.26243043 C-34.00360622 194.81390373 -34.0067674 192.3655744 -34.00976562 189.91699219 C-34.01903313 188.15204966 -34.02908394 186.38711111 -34.03985596 184.62217712 C-34.06599804 179.84307334 -34.07897266 175.06402561 -34.08787727 170.28486156 C-34.09375499 167.29433385 -34.10196755 164.30382118 -34.11088562 161.31330109 C-34.13820562 151.9427281 -34.15755438 142.57218984 -34.1652894 133.20157981 C-34.17424836 122.40990292 -34.20934558 111.61873298 -34.26729059 100.82721019 C-34.31060874 92.46768442 -34.33070239 84.10830088 -34.33337164 75.74866414 C-34.33546141 70.76381085 -34.34714037 65.77943507 -34.38301086 60.79470062 C-34.41612071 56.10275019 -34.42021318 51.41163248 -34.40273285 46.7196064 C-34.40120002 45.00563122 -34.40977277 43.29160986 -34.42964935 41.57774925 C-34.56659848 29.02508451 -32.57451453 19.45927854 -23.9375 9.8125 C-17.13672044 3.53485733 -9.20281061 0.14435781 0 0 Z " fill="#F4F6F7" transform="translate(204.6875,137.75)"/>
</svg>
