<?xml version="1.0" encoding="UTF-8"?>
<svg version="1.1" xmlns="http://www.w3.org/2000/svg" width="512" height="512">
<path d="M0 0 C3.82728294 3.29324346 7.05733816 6.42201447 8.6875 11.3125 C8.80776065 14.12604711 8.87287479 16.91667015 8.89282227 19.73120117 C8.90272186 20.58995346 8.91262146 21.44870575 8.92282104 22.33348083 C8.95442766 25.17411535 8.97919021 28.0147666 9.00390625 30.85546875 C9.0244765 32.82416724 9.04547299 34.79286132 9.06687927 36.7615509 C9.12209262 41.94498118 9.17150518 47.12845127 9.21972656 52.31195068 C9.26994694 57.60058132 9.32563021 62.88915409 9.38085938 68.17773438 C9.48843195 78.55594016 9.58987896 88.93419617 9.6875 99.3125 C10.29741791 98.52269745 10.90733582 97.7328949 11.53573608 96.91915894 C13.81430003 94.15889373 15.74743513 92.81267919 18.8515625 91.0703125 C19.87781738 90.48693115 20.90407227 89.9035498 21.96142578 89.30249023 C23.06728027 88.68704346 24.17313477 88.07159668 25.3125 87.4375 C26.47832099 86.77851931 27.64351232 86.11842358 28.80810547 85.45727539 C31.22770969 84.08482851 33.64994501 82.71720799 36.07421875 81.35302734 C41.67816832 78.19471364 47.24375532 74.9698389 52.8125 71.75 C53.88838379 71.12947754 54.96426758 70.50895508 56.07275391 69.86962891 C64.28084479 65.13433426 72.4675889 60.36311416 80.64892578 55.58178711 C89.07319339 50.66198718 97.52303896 45.78727862 105.9765625 40.91796875 C113.22701538 36.73900844 120.462342 32.53502591 127.6875 28.3125 C137.32049197 22.68378547 146.96586952 17.07676803 156.64453125 11.52685547 C161.15533677 8.93973544 165.65903092 6.35377124 170.0859375 3.625 C177.299184 -0.79090975 183.28072076 -3.82418664 191.8671875 -2.30078125 C197.27235225 -0.69962867 200.68065913 2.62029609 203.6875 7.3125 C205.81031182 11.57552808 205.97245359 15.48491935 205.94819641 20.1557312 C205.95202196 20.93910642 205.95584751 21.72248163 205.95978898 22.52959549 C205.97009701 25.1511465 205.96613101 27.77247759 205.9621582 30.39404297 C205.96650591 32.27502647 205.97168926 34.15600821 205.97764587 36.0369873 C205.9910413 41.1444563 205.99161389 46.25185133 205.98908257 51.35933447 C205.98801315 55.62375488 205.99289554 59.88816031 205.997688 64.15257752 C206.00878524 74.21387166 206.00921948 84.27512848 206.00317383 94.33642578 C205.99713402 104.71391592 206.00944476 115.09127048 206.0307439 125.46873748 C206.04836111 134.38013539 206.05436103 143.29149014 206.05110615 152.20290482 C206.04929322 157.52450695 206.05193048 162.84601237 206.06582069 168.16759872 C206.07839618 173.17284932 206.0764575 178.17788864 206.06340981 183.18313599 C206.06104381 185.01851599 206.06377954 186.85391086 206.07203293 188.68927383 C206.08250028 191.19819445 206.07440003 193.70640615 206.0617218 196.21530151 C206.06909609 196.9385631 206.07647037 197.66182468 206.08406812 198.40700328 C206.01743162 204.69164613 204.42153044 209.13257602 200.5 214.0625 C195.61717419 217.96876065 191.22438065 219.677349 184.92578125 219.14453125 C179.71710623 218.52932965 176.00167156 216.82298092 171.5625 214.125 C170.42651367 213.46504028 170.42651367 213.46504028 169.26757812 212.79174805 C167.61227981 211.82732072 165.96171454 210.85473403 164.31542969 209.875 C161.58751809 208.25305331 158.84656424 206.65533703 156.1015625 205.0625 C152.07322243 202.72312718 148.05032338 200.37478789 144.03125 198.01953125 C137.59990269 194.25496163 131.14569045 190.53077906 124.6875 186.8125 C115.3487509 181.43356363 106.03109553 176.01990477 96.7265625 170.58203125 C89.39466236 166.30027854 82.04479193 162.05045309 74.6875 157.8125 C65.31791683 152.41457825 55.95934574 146.99853456 46.62988281 141.53149414 C41.43518537 138.48857695 36.22638072 135.47455739 30.9921875 132.5 C29.89535645 131.87230713 28.79852539 131.24461426 27.66845703 130.59790039 C25.56732591 129.39618802 23.46173771 128.20222394 21.35107422 127.01733398 C20.40506348 126.47407471 19.45905273 125.93081543 18.484375 125.37109375 C17.65260742 124.89986084 16.82083984 124.42862793 15.96386719 123.94311523 C13.32508851 122.05289615 11.66715434 119.86797898 9.6875 117.3125 C9.68385437 118.39720581 9.68020874 119.48191162 9.67645264 120.5994873 C9.63945429 130.83961013 9.58162861 141.07943358 9.50359726 151.31932831 C9.4641481 156.58334063 9.43194697 161.8471863 9.41650391 167.11132812 C9.40132058 172.19492809 9.36684495 177.27806983 9.31919098 182.36146545 C9.30439452 184.29740915 9.29645998 186.23341828 9.29561615 188.16941833 C9.29323952 190.88882866 9.26610432 193.6069798 9.23339844 196.32617188 C9.2384288 197.12027466 9.24345917 197.91437744 9.24864197 198.73254395 C9.13354871 204.94882958 7.5359349 210.39249341 3.1041832 214.93560028 C-0.71437012 218.19120131 -4.59235071 219.03099228 -9.4921875 219.5625 C-18.02871071 218.80579988 -25.05981957 214.40148447 -32.25 210.0625 C-34.38365404 208.79609875 -36.51778526 207.53050118 -38.65234375 206.265625 C-39.7491748 205.61271484 -40.84600586 204.95980469 -41.97607422 204.28710938 C-47.39380952 201.08071079 -52.85386432 197.9485823 -58.3125 194.8125 C-67.65179143 189.43451189 -76.96891073 184.01990112 -86.2734375 178.58203125 C-93.60533723 174.30027878 -100.95517238 170.05039061 -108.3125 165.8125 C-117.64175929 160.43875801 -126.95148218 155.03293545 -136.24487305 149.59741211 C-141.55456946 146.49478726 -146.87355811 143.40922619 -152.20703125 140.34765625 C-152.78581024 140.01510834 -153.36458923 139.68256042 -153.96090698 139.3399353 C-156.74623392 137.73973566 -159.53291775 136.14201094 -162.32226562 134.54882812 C-165.33040291 132.82196991 -168.32552943 131.07570093 -171.3125 129.3125 C-172.31200684 128.7232373 -173.31151367 128.13397461 -174.34130859 127.52685547 C-175.78691162 126.64537842 -175.78691162 126.64537842 -177.26171875 125.74609375 C-178.11467529 125.22974365 -178.96763184 124.71339355 -179.84643555 124.18139648 C-182.8927956 121.87272544 -184.90068181 119.27674643 -187.3125 116.3125 C-187.31836624 117.43923126 -187.32423248 118.56596252 -187.33027649 119.72683716 C-187.3875131 130.35016474 -187.46027983 140.97328781 -187.54821491 151.59640694 C-187.59292414 157.05774584 -187.63217921 162.51901004 -187.65893555 167.98046875 C-187.68496277 173.25202557 -187.72536145 178.52329502 -187.77568626 183.79467392 C-187.79235883 185.80484312 -187.80387068 187.81506203 -187.81011391 189.82529068 C-187.81975061 192.64311021 -187.8478051 195.46019393 -187.88012695 198.27783203 C-187.87869186 199.10717758 -187.87725677 199.93652313 -187.8757782 200.79100037 C-187.95519806 205.69331075 -188.62440795 209.05593256 -191.3125 213.3125 C-198.30118155 219.77703044 -206.38409637 218.60137703 -215.3347168 218.66259766 C-217.10275472 218.67911683 -218.87072697 218.70635353 -220.63842773 218.74462891 C-223.20070689 218.79976261 -225.76142406 218.82132809 -228.32421875 218.8359375 C-229.10472092 218.85860687 -229.88522308 218.88127625 -230.68937683 218.90463257 C-235.79647176 218.88523832 -239.22569477 217.70246883 -243.58552551 215.07144165 C-247.60472681 210.97784292 -248.65005169 205.94289744 -248.71373022 200.36398125 C-248.70703805 199.63430201 -248.70034589 198.90462276 -248.69345093 198.15283203 C-248.6981309 197.35958086 -248.70281087 196.56632969 -248.70763266 195.7490406 C-248.7195448 193.1059583 -248.71014039 190.46339813 -248.70068359 187.8203125 C-248.70475098 185.9193288 -248.71009379 184.01834747 -248.71661377 182.11737061 C-248.73027329 176.96452776 -248.72499431 171.81186541 -248.71547651 166.65901947 C-248.70787289 161.26242085 -248.71492748 155.86583752 -248.71963501 150.46923828 C-248.7250905 141.40719839 -248.71790633 132.34523188 -248.70361328 123.28320312 C-248.68728719 112.81137015 -248.69257585 102.33971241 -248.7090925 91.86788368 C-248.72271321 82.87151402 -248.72462415 73.87519706 -248.71677649 64.87882042 C-248.71210321 59.50807193 -248.71146569 54.13740577 -248.72138596 48.7666626 C-248.73006181 43.7170518 -248.72402227 38.66766661 -248.70670319 33.61808014 C-248.70274167 31.7665774 -248.70386664 29.91505562 -248.71049118 28.06356049 C-248.71871005 25.53284134 -248.70838123 23.0028415 -248.69345093 20.47216797 C-248.70014309 19.74248873 -248.70683526 19.01280949 -248.71373022 18.26101875 C-248.65552933 13.1620026 -247.63223138 9.7616669 -245.3125 5.3125 C-240.08296236 0.46561145 -236.47000963 0.14405232 -229.54296875 0.109375 C-228.66981522 0.10367493 -227.79666168 0.09797485 -226.89704895 0.09210205 C-225.04685683 0.08264655 -223.19664782 0.07611589 -221.34643555 0.07226562 C-218.52167156 0.06257435 -215.69763956 0.03156245 -212.87304688 0 C-211.07552515 -0.00653152 -209.27799823 -0.01178141 -207.48046875 -0.015625 C-206.63759811 -0.0279718 -205.79472748 -0.0403186 -204.92631531 -0.05303955 C-200.21215733 -0.03522128 -197.14779059 0.27107697 -193.3125 3.3125 C-188.6761206 8.59282099 -188.15513872 11.834435 -188.10717773 18.70947266 C-188.09727814 19.57783249 -188.08737854 20.44619232 -188.07717896 21.34086609 C-188.04551842 24.21940355 -188.02078855 27.09795753 -187.99609375 29.9765625 C-187.97552815 31.96911047 -187.95453179 33.96165405 -187.93312073 35.95419312 C-187.87785933 41.20504192 -187.82846801 46.45593036 -187.78027344 51.70684814 C-187.73008809 57.06241392 -187.67438656 62.41792196 -187.61914062 67.7734375 C-187.5115093 78.28640904 -187.41007539 88.79943066 -187.3125 99.3125 C-186.53737061 98.52278809 -185.76224121 97.73307617 -184.96362305 96.91943359 C-182.43909666 94.43698652 -180.14807011 92.75390038 -177.125 90.9375 C-176.58512451 90.61209229 -176.04524902 90.28668457 -175.48901367 89.95141602 C-165.9958148 84.2747183 -156.3725445 78.81227912 -146.78076172 73.3046875 C-141.24629096 70.12565882 -135.71646711 66.93858873 -130.1875 63.75 C-129.11089111 63.12923584 -128.03428223 62.50847168 -126.92504883 61.86889648 C-118.71819979 57.13296487 -110.53175925 52.36273321 -102.35107422 47.58178711 C-93.92680661 42.66198718 -85.47696104 37.78727862 -77.0234375 32.91796875 C-69.77298114 28.73900643 -62.5379601 24.53451274 -55.3125 20.3125 C-52.36286773 18.59155201 -49.41294567 16.87110206 -46.46289062 15.15087891 C-44.24208397 13.85494942 -42.02201921 12.55780637 -39.80273438 11.25927734 C-36.80668822 9.5067348 -33.80761505 7.75946977 -30.80664062 6.01538086 C-29.09827104 5.02082472 -27.39285129 4.02120709 -25.6875 3.02148438 C-24.65109375 2.42013672 -23.6146875 1.81878906 -22.546875 1.19921875 C-21.63131836 0.66514404 -20.71576172 0.13106934 -19.77246094 -0.41918945 C-13.35504786 -3.72788943 -6.37403217 -3.24714846 0 0 Z " fill="#8994FF" transform="translate(277.3125,147.6875)"/>
</svg>
