<?xml version="1.0" encoding="UTF-8"?>
<svg version="1.1" xmlns="http://www.w3.org/2000/svg" width="512" height="512">
<path d="M0 0 C0.88300781 0.05542969 1.76601562 0.11085937 2.67578125 0.16796875 C12.00261603 2.16398398 17.68206074 8.23133096 24.17089844 14.77832031 C25.19923466 15.80122814 26.22841807 16.82328488 27.25837708 17.84455872 C30.03812199 20.60615278 32.80516614 23.38014788 35.56947994 26.15717793 C38.47238241 29.07025086 41.38508148 31.97350259 44.29620361 34.87835693 C49.18206136 39.75695004 54.05945372 44.64388729 58.93212891 49.53564453 C64.55509423 55.18037622 70.19232405 60.81055384 75.83717895 66.43338895 C80.69486762 71.27288991 85.54467307 76.12018724 90.38804841 80.97401309 C93.2757672 83.86794826 96.16607359 86.75915999 99.06352997 89.64334869 C101.78790972 92.35612147 104.50221911 95.07859346 107.20926476 97.80866051 C108.20067626 98.80533326 109.19545583 99.79866953 110.19392586 100.78827095 C117.8826548 108.41500991 123.1994601 114.84921822 123.76953125 126.01953125 C123.55699756 133.25579723 121.59942613 138.16520476 116.67286682 143.49185181 C115.46170543 144.80200697 115.46170543 144.80200697 114.22607613 146.13862991 C110.13927797 150.44323486 105.98719599 154.6768757 101.79663086 158.88037109 C100.84260264 159.8406863 99.88875582 160.80118175 98.93507385 161.76184082 C95.84431201 164.87334639 92.74848709 167.97978838 89.65234375 171.0859375 C88.57862421 172.16371306 87.5049353 173.24151912 86.43127632 174.31935501 C81.39241851 179.37718381 76.35120791 184.4326528 71.30704874 189.48519456 C65.50872456 195.29331932 59.71880812 201.10966256 53.93575376 206.93299043 C49.44402029 211.45491805 44.94460498 215.96910954 40.43940455 220.47761977 C37.75713886 223.16222811 35.07823475 225.8499939 32.40745354 228.54603195 C29.89874209 231.07809331 27.38059277 233.60037894 24.85506248 236.11566162 C23.49735015 237.47264648 22.14952567 238.83950236 20.80209351 240.20669556 C13.76685773 247.18254317 7.49235916 251.2890493 -2.5625 252.0625 C-11.25892476 251.48273835 -17.50558697 248.3419927 -23.3125 241.8125 C-27.47191062 236.1263693 -28.55099008 229.76846059 -28.3125 222.8125 C-26.54323579 212.26496333 -18.6787459 204.87850633 -11.37939453 197.65234375 C-10.6079863 196.88064346 -9.83657806 196.10894318 -9.04179382 195.31385803 C-6.51434955 192.78779679 -3.97991592 190.26887605 -1.4453125 187.75 C0.31774884 185.99067243 2.08036645 184.23090008 3.84255981 182.47070312 C8.4642526 177.85661805 13.09192163 173.24857291 17.72088623 168.64178467 C22.45092477 163.93335922 27.17416363 159.2181142 31.8984375 154.50390625 C41.15589552 145.26784764 50.41948814 136.0379676 59.6875 126.8125 C58.32886175 123.77245917 56.80733869 121.69013843 54.44352722 119.35493469 C53.77487137 118.68931015 53.10621552 118.02368561 52.41729736 117.33789062 C51.68428406 116.61835205 50.95127075 115.89881348 50.19604492 115.1574707 C49.42349869 114.39105759 48.65095245 113.62464447 47.85499573 112.83500671 C46.17652855 111.17084719 44.49583425 109.50893164 42.81319237 107.8489933 C40.14724378 105.21782667 37.48844706 102.57962892 34.83161926 99.93925476 C27.27628695 92.43281814 19.71006114 84.9374529 12.13452148 77.45141602 C7.50021819 72.87169465 2.87666666 68.28126425 -1.74143028 63.68520164 C-3.50023902 61.93877674 -5.26282968 60.19615177 -7.02930641 58.45748329 C-9.50644077 56.01898516 -11.97081905 53.56822409 -14.43286133 51.11450195 C-15.15980194 50.40508453 -15.88674255 49.69566711 -16.63571167 48.9647522 C-23.39349789 42.1809341 -28.00230549 35.31560219 -28.4375 25.578125 C-28.08841281 17.85457098 -25.61575928 12.09062017 -20.27734375 6.50390625 C-14.36260293 1.41229039 -7.74953385 -0.59439261 0 0 Z " fill="#1D87E5" transform="translate(153.3125,130.1875)"/>
<path d="M0 0 C2.3401432 1.82244015 2.3401432 1.82244015 4.69497681 4.01072693 C6.00174818 5.22273427 6.00174818 5.22273427 7.33491898 6.45922661 C11.62970495 10.55369047 15.86562959 14.70155403 20.06787109 18.89086914 C21.0281863 19.84489736 21.98868175 20.79874418 22.94934082 21.75242615 C26.06084639 24.84318799 29.16728838 27.93901291 32.2734375 31.03515625 C33.35121306 32.10887579 34.42901912 33.1825647 35.50685501 34.25622368 C40.56468381 39.29508149 45.6201528 44.33629209 50.67269456 49.38045126 C56.48081932 55.17877544 62.29716256 60.96869188 68.12049043 66.75174624 C72.64241805 71.24347971 77.15660954 75.74289502 81.66511977 80.24809545 C84.34972811 82.93036114 87.0374939 85.60926525 89.73353195 88.28004646 C92.26559331 90.78875791 94.78787894 93.30690723 97.30316162 95.83243752 C98.66014648 97.19014985 100.02700236 98.53797433 101.39419556 99.88540649 C108.33347802 106.88376582 112.56739291 113.12290167 113.08203125 123.20703125 C112.86949756 130.44329723 110.91192613 135.35270476 105.98536682 140.67935181 C104.77420543 141.98950697 104.77420543 141.98950697 103.53857613 143.32612991 C99.45177797 147.63073486 95.29969599 151.8643757 91.10913086 156.06787109 C90.15510264 157.0281863 89.20125582 157.98868175 88.24757385 158.94934082 C85.15681201 162.06084639 82.06098709 165.16728838 78.96484375 168.2734375 C77.89112421 169.35121306 76.8174353 170.42901912 75.74377632 171.50685501 C70.70491851 176.56468381 65.66370791 181.6201528 60.61954874 186.67269456 C54.82122456 192.48081932 49.03130812 198.29716256 43.24825376 204.12049043 C38.75652029 208.64241805 34.25710498 213.15660954 29.75190455 217.66511977 C27.06963886 220.34972811 24.39073475 223.0374939 21.71995354 225.73353195 C19.21124209 228.26559331 16.69309277 230.78787894 14.16756248 233.30316162 C12.80985015 234.66014648 11.46202567 236.02700236 10.11459351 237.39419556 C3.07935773 244.37004317 -3.19514084 248.4765493 -13.25 249.25 C-21.94642476 248.67023835 -28.19308697 245.5294927 -34 239 C-38.15941062 233.3138693 -39.23849008 226.95596059 -39 220 C-37.23073579 209.45246333 -29.3662459 202.06600633 -22.06689453 194.83984375 C-21.2954863 194.06814346 -20.52407806 193.29644318 -19.72929382 192.50135803 C-17.20184955 189.97529679 -14.66741592 187.45637605 -12.1328125 184.9375 C-10.36975116 183.17817243 -8.60713355 181.41840008 -6.84494019 179.65820312 C-2.2232474 175.04411805 2.40442163 170.43607291 7.03338623 165.82928467 C11.76342477 161.12085922 16.48666363 156.4056142 21.2109375 151.69140625 C30.46839552 142.45534764 39.73198814 133.2254676 49 124 C47.64176748 120.96015053 46.1222151 118.88143117 43.75602722 116.54916382 C43.08737137 115.88498444 42.41871552 115.22080505 41.72979736 114.53649902 C40.99678406 113.81853149 40.26377075 113.10056396 39.50854492 112.36083984 C38.73599869 111.59603302 37.96345245 110.8312262 37.16749573 110.04324341 C35.48899044 108.38239434 33.80829775 106.7237537 32.12569237 105.06705856 C29.45939229 102.4401726 26.80067551 99.80583522 24.14411926 97.1690979 C16.58971254 89.67272497 9.0261054 82.18577393 1.44702148 74.71435547 C-3.18907482 70.14288509 -7.81274582 65.55915098 -12.42893028 60.96757889 C-14.18685561 59.22387252 -15.94943595 57.48484569 -17.71680641 55.75071335 C-20.19634995 53.31714162 -22.65978274 50.8682527 -25.12036133 48.41552734 C-25.84730194 47.7097052 -26.57424255 47.00388306 -27.32321167 46.27667236 C-33.68420142 39.8782653 -38.54258938 32.44716357 -39.0625 23.21875 C-38.83974946 15.31110579 -36.46590467 9.7417072 -31 4 C-22.05737881 -4.08117603 -10.79951919 -4.926482 0 0 Z " fill="#63B4F6" transform="translate(274,133)"/>
</svg>
